<?xml version="1.0" encoding="UTF-8" standalone="no"?>
<!-- Created with Inkscape (http://www.inkscape.org/) -->

<svg
   xmlns:dc="http://purl.org/dc/elements/1.1/"
   xmlns:cc="http://creativecommons.org/ns#"
   xmlns:rdf="http://www.w3.org/1999/02/22-rdf-syntax-ns#"
   xmlns:svg="http://www.w3.org/2000/svg"
   xmlns="http://www.w3.org/2000/svg"
   xmlns:sodipodi="http://sodipodi.sourceforge.net/DTD/sodipodi-0.dtd"
   xmlns:inkscape="http://www.inkscape.org/namespaces/inkscape"
   width="87.610558mm"
   height="39.939598mm"
   viewBox="0 0 310.43111 141.51826"
   id="svg2"
   version="1.1"
   inkscape:version="0.91 r13725"
   sodipodi:docname="SAMRC_Logo.svg"
   style="enable-background:new">
  <defs
     id="defs4" />
  <sodipodi:namedview
     id="base"
     pagecolor="#ffffff"
     bordercolor="#666666"
     borderopacity="1.0"
     inkscape:pageopacity="0.0"
     inkscape:pageshadow="2"
     inkscape:zoom="0.98994949"
     inkscape:cx="92.639074"
     inkscape:cy="84.12862"
     inkscape:document-units="px"
     inkscape:current-layer="layer3"
     showgrid="false"
     showguides="true"
     inkscape:guide-bbox="true"
     inkscape:window-width="2048"
     inkscape:window-height="1088"
     inkscape:window-x="0"
     inkscape:window-y="1107"
     inkscape:window-maximized="1"
     fit-margin-top="0"
     fit-margin-left="0"
     fit-margin-right="0"
     fit-margin-bottom="0" />
  <metadata
     id="metadata7">
    <rdf:RDF>
      <cc:Work
         rdf:about="">
        <dc:format>image/svg+xml</dc:format>
        <dc:type
           rdf:resource="http://purl.org/dc/dcmitype/StillImage" />
        <dc:title></dc:title>
      </cc:Work>
    </rdf:RDF>
  </metadata>
  <g
     inkscape:groupmode="layer"
     id="layer3"
     inkscape:label="Vector"
     style="display:inline;opacity:1"
     transform="translate(-209.41725,-325.88879)">
    <g
       id="g4478">
      <path
         style="fill:#007db5;fill-opacity:1"
         d="m 476.71194,423.50165 c 0.46622,0.0185 2.0892,-3.20075 3.6066,-7.15387 3.9597,-10.31577 3.91595,-23.92859 -0.10363,-32.25468 -6.99728,-14.49403 -24.003,-27.02054 -48.29156,-35.57185 -6.17824,-2.17518 -20.14914,-11.93123 -20.34153,-14.20472 -0.31533,-3.72662 45.97092,14.91601 57.83494,23.29407 l 3.55249,2.50867 8.94751,-8.77587 c 19.27961,-18.9098 31.67286,-24.81945 14.4085,-6.87062 -5.78622,6.01562 -12.12007,13.04609 -14.07523,15.62326 l -3.55484,4.68575 4.28556,4.74359 c 7.94688,8.79624 10.3835,15.60381 10.3835,29.0099 0,11.02039 -0.31081,12.50471 -4.3189,20.625 -2.37539,4.8125 -4.47942,9.03125 -4.67565,9.375 -2.91052,-1.88306 -4.6923,-3.27833 -7.65776,-5.03363 z"
         id="path7492"
         inkscape:connector-curvature="0"
         sodipodi:nodetypes="cssssscssscssscc" />
      <path
         style="fill:#007db5;fill-opacity:1"
         d="m 428.4416,458.66043 c -0.48154,-0.77913 0.009,-1.37515 1.13011,-1.37515 7.68561,0 24.67588,-9.21643 35.25978,-19.12679 6.44302,-6.03299 6.47952,-6.04762 9.74656,-3.90699 l 3.27931,2.14869 -3.49655,3.7373 c -4.80929,5.14039 -16.81922,12.82444 -24.58626,15.73045 -8.29146,3.10224 -20.17975,4.65841 -21.33295,2.79249 z"
         id="path7490"
         inkscape:connector-curvature="0" />
      <path
         inkscape:connector-curvature="0"
         style="display:inline;fill:#c5ccd1;fill-opacity:1"
         d="m 484.08251,427.83399 c 1.27137,1.01639 3.35337,2.38581 7.62638,5.13581 11.3149,7.28197 21.69088,17.9451 25.44847,26.15276 4.17605,9.12171 3.38075,11.09068 -1.61624,4.00138 -2.1746,-3.08513 -5.25797,-6.45948 -6.85193,-7.49855 -4.11416,-2.68196 -17.03788,-4.51015 -31.96061,-4.52115 -7.04688,-0.005 -12.8125,-0.4901 -12.8125,-1.07758 0,-0.58749 7.08671,-1.3742 15.74826,-1.74826 14.83302,-0.64059 20.19334,-1.93158 16.7798,-4.04126 -0.79187,-0.4894 -5.90339,-1.19577 -11.35891,-1.5697 -10.61075,-0.72728 -13.72115,-2.82264 -4.18999,-2.82264 3.15105,0 5.54168,-0.50187 5.3125,-1.11526 -0.22916,-0.6134 -5.57599,-4.55752 -11.88182,-8.76469 -12.89257,-8.60176 -18.26608,-14.93385 -20.47025,-24.12188 -2.76429,-11.52286 1.52346,-27.31528 9.43402,-34.74687 2.92486,-2.74776 3.3386,-2.82481 5.19587,-0.96754 1.85726,1.85727 1.80679,2.28638 -0.63374,5.38902 -3.44292,4.37695 -2.52546,5.57722 4.26304,5.57722 6.46566,0 7.38954,1.93317 1.48872,3.11503 -7.84065,1.57039 -12.1875,3.34414 -12.1875,4.97317 0,2.35112 2.91069,3.1618 11.35224,3.1618 10.33129,0 9.24967,1.96888 -1.63748,2.98074 -10.19605,0.94762 -12.88477,2.48175 -9.16335,5.22841 1.50234,1.10882 5.42975,1.79085 10.3125,1.79085 10.12832,0 10.21087,1.90087 0.12832,2.95471 -4.26678,0.44596 -8.22813,1.28118 -8.80298,1.85604 -1.81107,1.81107 2.51548,4.17276 9.34991,5.10375 l 6.58584,0.89712 -6.14739,1.01759 -6.14737,1.0176 4.27237,3.54296 c 2.34982,1.94864 4.89845,3.74155 6.00674,4.46326"
         id="path7492-8"
         sodipodi:nodetypes="csssscssssscssssssssssssssscccsc" />
      <g
         transform="translate(31.667821,142.06595)"
         style="display:inline"
         inkscape:label="Layer 2"
         id="layer2">
        <circle
           r="11.607142"
           cy="195.43498"
           cx="439.35309"
           id="path7496"
           style="fill:#c5ccd1;fill-opacity:1;fill-rule:evenodd;stroke:#c5ccd1;stroke-width:0.01;stroke-linecap:butt;stroke-linejoin:miter;stroke-miterlimit:4;stroke-dasharray:none;stroke-opacity:1" />
      </g>
      <g
         id="text4358"
         style="font-style:normal;font-weight:normal;font-size:76.05548096px;line-height:125%;font-family:sans-serif;text-align:start;letter-spacing:0px;word-spacing:0px;writing-mode:lr-tb;text-anchor:start;fill:#007db5;fill-opacity:1;stroke:none;stroke-width:0.2;stroke-linecap:butt;stroke-linejoin:miter;stroke-miterlimit:4;stroke-dasharray:none;stroke-opacity:1"
         transform="scale(1.0916834,0.91601653)">
        <path
           sodipodi:nodetypes="szsssccssccccsccccsccccssccs"
           inkscape:connector-curvature="0"
           id="path4378"
           style="font-style:normal;font-variant:normal;font-weight:bold;font-stretch:normal;font-size:76.05548096px;line-height:125%;font-family:Triomphe;-inkscape-font-specification:'Triomphe, Bold';text-align:start;writing-mode:lr-tb;text-anchor:start;fill:#007db5;fill-opacity:1;stroke:none;stroke-width:0.2;stroke-miterlimit:4;stroke-dasharray:none;stroke-opacity:1"
           d="m 351.50835,425.5371 c 2.41446,0 4.22476,-0.40449 5.42578,-1.21349 1.20102,-0.809 1.68585,-3.19864 1.68585,-5.10127 0,-1.90263 -0.20444,-4.35973 -1.70705,-5.725 -1.09753,-0.99722 -3.00254,-1.21543 -5.40458,-1.21543 l -5.57666,0 0,13.25519 z m 20.79719,-6.69983 c 0,3.21296 -0.72082,6.1069 -2.16246,8.68182 -1.42217,2.55213 -3.22423,4.28394 -5.40618,5.19542 0.99357,0.75197 3.04921,3.43167 4.13855,5.36276 1.1141,1.93109 2.33999,4.85187 2.98368,6.83248 0.66846,1.95586 1.6549,4.52331 2.49666,6.87529 0.84176,2.35197 1.36554,4.12214 2.03399,5.31051 l -14.51416,0 -3.26685,-10.59081 c -0.56943,-1.36167 -0.76246,-2.38687 -2.19841,-5.89778 -1.43594,-3.60581 -3.06994,-5.40872 -4.90201,-5.40872 l -5.57666,0 0,21.89731 -12.99157,0 0,-55.85324 18.56823,0 c 3.5651,0 7.41326,0.45918 9.69262,1.18836 2.27936,0.72918 4.24701,1.81157 5.90295,3.24714 1.65595,1.41279 2.932,3.23575 3.82816,5.46886 0.91564,2.23313 1.37346,4.79666 1.37346,7.6906 z" />
      </g>
      <g
         id="text4364"
         style="font-style:normal;font-weight:normal;font-size:71.83657074px;line-height:125%;font-family:sans-serif;text-align:start;letter-spacing:0px;word-spacing:0px;writing-mode:lr-tb;text-anchor:start;fill:#007db5;fill-opacity:1;stroke:none;stroke-width:0.2;stroke-linecap:butt;stroke-linejoin:miter;stroke-miterlimit:4;stroke-dasharray:none;stroke-opacity:1"
         transform="scale(1.0311261,0.96981345)">
        <path
           sodipodi:nodetypes="ccccccccccccc"
           inkscape:connector-curvature="0"
           id="path4375"
           style="font-style:normal;font-variant:normal;font-weight:bold;font-stretch:normal;font-size:71.83657074px;line-height:125%;font-family:Triomphe;-inkscape-font-specification:'Triomphe, Bold';text-align:start;writing-mode:lr-tb;text-anchor:start;fill:#007db5;fill-opacity:1;stroke:none;stroke-width:0.2;stroke-miterlimit:4;stroke-dasharray:none;stroke-opacity:1"
           d="m 347.57098,378.98486 0,52.75498 -15.42124,0.13911 0,-30.73437 -13.45771,19.30064 -13.45772,-19.30064 0,30.73437 -15.05385,-0.13911 0,-52.75498 15.11971,-0.009 13.39186,19.47632 13.54016,-19.47632 z" />
      </g>
      <path
         sodipodi:nodetypes="csssszzccssssscc"
         inkscape:connector-curvature="0"
         id="path4383"
         d="m 451.79072,373.28716 c 0,0 -1.38896,-1.7362 -4.08796,-3.4724 -2.699,-1.7362 -6.70804,-3.4724 -11.94821,-3.4724 -10.48033,0 -18.81409,6.43972 -22.47589,12.87944 -3.6618,6.43972 -4.04061,11.23795 -3.78807,15.5311 0.25254,4.29314 1.26269,11.99556 8.9651,18.68782 7.70241,6.69226 14.01586,6.81853 17.67767,6.69226 3.6618,-0.12627 7.70241,-0.50507 12.2481,-3.03046 -4.16688,-6.18718 -4.41942,-13.76333 -4.41942,-13.76333 0,0 -2.65165,3.15673 -8.46002,2.90419 -5.80838,-0.25254 -8.08122,-3.03045 -10.10153,-5.93464 -1.89274,-2.72083 -2.64063,-9.84358 -0.25254,-13.25826 2.24801,-3.21439 3.80735,-4.56196 7.70242,-5.80837 3.15672,-1.01015 6.81852,0 6.81852,0 3.40421,1.21219 6.566,3.15672 6.566,3.15672 z"
         style="fill:#007db5;fill-opacity:1;fill-rule:evenodd;stroke:none;stroke-width:0.2;stroke-linecap:butt;stroke-linejoin:miter;stroke-miterlimit:4;stroke-dasharray:none;stroke-opacity:1" />
      <path
         sodipodi:nodetypes="czssccszccsscsssccc"
         inkscape:connector-curvature="0"
         id="path4401"
         d="m 294.64286,418.34435 c 0,0 -0.44432,-26.52039 -0.77742,-32.472 -0.33311,-5.95161 -0.63135,-8.64539 -3.97639,-12.73722 -3.35751,-4.10708 -9.35333,-7.11221 -16.22833,-7.2015 -6.87501,-0.0893 -13.21429,2.5 -19.55358,7.14286 1.42858,1.875 4.19643,4.375 4.19643,4.375 0,0 8.21429,-6.16072 15.625,-5.98214 7.41072,0.17857 10.89616,3.1182 12.74621,5.13075 1.85004,2.01256 2.60766,5.09107 2.81752,12.01211 l -7.17088,-0.53572 c 0,0 -10.71428,-0.80358 -17.94642,2.32142 -7.23215,3.125 -10.98214,8.30357 -10.89286,13.75 0.0893,5.44643 1.25,6.51786 1.25,6.51786 0,0 1.60715,4.28572 5.71429,6.16072 4.10714,1.875 5.53571,1.78571 10.17857,1.875 4.64285,0.0893 9.50706,-1.74795 10.89286,-2.41072 2.05357,-0.98215 7.12939,-3.39285 8.02224,-5.44642 0.0893,4.99999 -0.13708,7.5 -0.13708,7.5 z"
         style="fill:#c5ccd1;fill-opacity:1;fill-rule:evenodd;stroke:none;stroke-width:0.2;stroke-linecap:butt;stroke-linejoin:miter;stroke-miterlimit:4;stroke-dasharray:none;stroke-opacity:1" />
      <path
         sodipodi:nodetypes="csczzsscc"
         inkscape:connector-curvature="0"
         id="path4405"
         d="m 289.22397,393.8489 c 0.21093,4.24257 -0.28415,10.75518 -4.29596,14.18233 -3.84003,3.28037 -7.40333,5.14629 -12.33019,5.30362 -7.03843,0.40574 -11.05241,-1.48682 -12.65246,-4.31823 -1.60006,-2.83141 -1.85201,-6.45651 1.39942,-10.33615 3.25141,-3.87964 9.34093,-5.10523 12.40477,-5.43976 1.53191,-0.16727 5.11112,-0.25588 7.831,-0.12028 2.71987,0.13564 4.58043,0.49554 7.64342,0.72843 z"
         style="fill:#ffffff;fill-opacity:1;fill-rule:evenodd;stroke:none;stroke-width:0.18578775;stroke-linecap:butt;stroke-linejoin:miter;stroke-miterlimit:4;stroke-dasharray:none;stroke-opacity:1" />
      <path
         sodipodi:nodetypes="csssssszszzssccssszzzzsszszcc"
         inkscape:connector-curvature="0"
         id="path4407"
         d="m 213.8998,406.05398 c 0,0 2.0203,2.20971 5.42958,4.67195 3.34684,2.41715 6.43971,2.96733 8.83883,2.96733 2.39911,0 7.01744,-0.26432 10.10152,-2.84106 1.61927,-1.35289 3.6953,-4.93242 3.0936,-7.89182 -0.48171,-2.36921 -1.92381,-4.79529 -5.87152,-6.06091 -2.17045,-0.69584 -8.39914,-1.35018 -11.17481,-2.2097 -3.51246,-1.08768 -7.32361,-1.83091 -10.2278,-5.49271 -2.90418,-3.6618 -2.78268,-7.36022 -2.33598,-9.84899 0.44195,-2.46224 2.28083,-6.51433 4.10376,-8.20749 1.82293,-1.69317 4.49461,-3.75222 7.82867,-4.67196 3.33406,-0.91974 4.86136,-1.01015 8.01809,-0.63134 3.15673,0.37881 5.93465,1.51523 8.20749,3.03046 2.27284,1.51523 6.18718,5.68211 6.18718,5.68211 l -4.98762,3.03045 c 0,0 -2.84106,-4.73508 -8.64944,-5.87151 -5.80837,-1.13642 -10.10152,1.57837 -11.49048,3.09359 -1.38896,1.51523 -3.40926,3.91434 -3.15673,6.81853 0.24678,2.83805 1.51523,4.86136 4.29315,6.12406 2.77792,1.26269 5.97744,1.75243 7.89182,2.14657 1.91437,0.39414 6.9448,1.24863 9.65958,2.52537 2.71478,1.27674 5.14886,3.67763 6.43973,6.25033 1.29087,2.5727 1.51522,6.06091 1.13642,8.46003 -0.37881,2.39911 -2.056,5.02227 -4.23002,7.26047 -2.06794,2.12898 -7.51393,4.85243 -10.54347,5.17703 -3.02954,0.32459 -7.63927,0.0631 -10.54346,-0.69449 -2.90419,-0.75761 -6.25055,-3.03443 -8.01809,-4.41941 -1.76754,-1.38498 -4.48255,-4.54568 -4.48255,-4.54568 z"
         style="fill:#c5ccd1;fill-opacity:1;fill-rule:evenodd;stroke:none;stroke-width:0.2;stroke-linecap:butt;stroke-linejoin:miter;stroke-miterlimit:4;stroke-dasharray:none;stroke-opacity:1" />
      <text
         xml:space="preserve"
         style="font-style:normal;font-weight:normal;font-size:50.42121887px;line-height:125%;font-family:sans-serif;text-align:start;letter-spacing:0px;word-spacing:0px;writing-mode:lr-tb;text-anchor:start;fill:#c5ccd1;fill-opacity:1;stroke:none;stroke-width:1px;stroke-linecap:butt;stroke-linejoin:miter;stroke-opacity:1"
         x="295.60272"
         y="446.22928"
         id="text4441"
         sodipodi:linespacing="125%"><tspan
           sodipodi:role="line"
           id="tspan4443"
           x="295.60272"
           y="446.22928"
           style="font-style:normal;font-variant:normal;font-weight:300;font-stretch:normal;font-size:25.21060944px;line-height:125%;font-family:Triomphe;-inkscape-font-specification:'Triomphe, Light';text-align:start;writing-mode:lr-tb;text-anchor:start;fill:#c5ccd1;fill-opacity:1">advancing</tspan></text>
      <text
         sodipodi:linespacing="125%"
         id="text4445"
         y="446.42981"
         x="412.14908"
         style="font-style:normal;font-weight:normal;font-size:50.42121887px;line-height:125%;font-family:sans-serif;text-align:start;letter-spacing:0px;word-spacing:0px;writing-mode:lr-tb;text-anchor:start;fill:#c5ccd1;fill-opacity:1;stroke:none;stroke-width:1px;stroke-linecap:butt;stroke-linejoin:miter;stroke-opacity:1"
         xml:space="preserve"><tspan
           style="font-style:normal;font-variant:normal;font-weight:bold;font-stretch:normal;font-size:25.625px;line-height:125%;font-family:Triomphe;-inkscape-font-specification:'Triomphe, Bold';text-align:start;writing-mode:lr-tb;text-anchor:start;fill:#c5ccd1;fill-opacity:1"
           y="446.42981"
           x="412.14908"
           id="tspan4447"
           sodipodi:role="line">life</tspan></text>
    </g>
  </g>
</svg>
